<svg xmlns="http://www.w3.org/2000/svg" viewBox="0 0 400 400">
  <!-- Hole: x=110 y=138 w=168 h=152 → CSS top:34.5% left:27.5% w:42% h:38% -->
  <path fill-rule="evenodd"
    d="M68 95 A 132 22 0 0 0 332 95 L328 358 C328 372 316 382 302 382 L98 382 C84 382 72 372 72 358 Z
       M110 138 L278 138 L278 290 L110 290 Z"
    fill="#1f2937"
  />
  <!-- Rim top ellipse -->
  <ellipse cx="200" cy="95" rx="132" ry="22" fill="#374151" stroke="#6b7280" stroke-width="1.5"/>
  <!-- Inner rim hint -->
  <ellipse cx="200" cy="95" rx="110" ry="16" fill="none" stroke="#6b7280" stroke-width="1.2"/>
  <!-- Mug outline -->
  <path
    d="M68 95 A 132 22 0 0 0 332 95 L328 358 C328 372 316 382 302 382 L98 382 C84 382 72 372 72 358 Z"
    fill="none" stroke="#9ca3af" stroke-width="2"
  />
  <!-- Handle (outer + inner for depth) -->
  <path d="M328 168 C388 168 402 200 402 228 C402 258 384 292 328 296" fill="none" stroke="#9ca3af" stroke-width="8" stroke-linecap="round"/>
  <path d="M328 168 C388 168 402 200 402 228 C402 258 384 292 328 296" fill="none" stroke="#1f2937" stroke-width="4" stroke-linecap="round"/>
</svg>
