<svg xmlns="http://www.w3.org/2000/svg" viewBox="0 0 400 400">
  <!-- Hole: x=117 y=90 w=166 h=260 → CSS top:22.5% left:29.25% w:41.5% h:65% -->
  <path fill-rule="evenodd"
    d="M123 12 C108 12 95 25 95 40 L95 360 C95 375 108 388 123 388 L277 388 C292 388 305 375 305 360 L305 40 C305 25 292 12 277 12 Z
       M117 90 L283 90 L283 350 L117 350 Z"
    fill="#1f2937"
  />
  <!-- Case outline -->
  <rect x="95" y="12" width="210" height="376" rx="28" fill="none" stroke="#9ca3af" stroke-width="2"/>
  <!-- Camera island -->
  <rect x="210" y="24" width="72" height="58" rx="12" fill="#374151" stroke="#6b7280" stroke-width="1.5"/>
  <circle cx="233" cy="48" r="12" fill="#2d3748" stroke="#6b7280" stroke-width="1.2"/>
  <circle cx="259" cy="48" r="12" fill="#2d3748" stroke="#6b7280" stroke-width="1.2"/>
  <circle cx="264" cy="69" r="4"  fill="#374151" stroke="#6b7280" stroke-width="1"/>
  <!-- Side buttons -->
  <rect x="300" y="132" width="5" height="48" rx="2.5" fill="#374151" stroke="#6b7280" stroke-width="1"/>
  <rect x="95"  y="118" width="5" height="32" rx="2.5" fill="#374151" stroke="#6b7280" stroke-width="1"/>
  <rect x="95"  y="160" width="5" height="32" rx="2.5" fill="#374151" stroke="#6b7280" stroke-width="1"/>
</svg>
