<svg xmlns="http://www.w3.org/2000/svg" viewBox="0 0 400 400">
  <defs>
    <filter id="ts-sh" x="-15%" y="-10%" width="130%" height="125%">
      <feDropShadow dx="0" dy="5" stdDeviation="10" flood-color="#000" flood-opacity="0.13"/>
    </filter>
    <linearGradient id="ts-fade" x1="0" y1="0" x2="1" y2="0">
      <stop offset="0%"   stop-color="#bbb" stop-opacity="0.18"/>
      <stop offset="28%"  stop-color="#bbb" stop-opacity="0"/>
      <stop offset="72%"  stop-color="#bbb" stop-opacity="0"/>
      <stop offset="100%" stop-color="#bbb" stop-opacity="0.18"/>
    </linearGradient>
  </defs>

  <!-- White shirt with transparent print-zone hole (evenodd) + shadow -->
  <!-- Hole coords: x=130 y=140 w=140 h=136 → CSS top:35% left:32.5% w:35% h:34% -->
  <path fill-rule="evenodd"
    d="M200 38 C218 38 234 52 241 67 L293 52 L370 90 L349 150 L288 125 L288 376 L112 376 L112 125 L51 150 L30 90 L107 52 L159 67 C166 52 182 38 200 38 Z
       M130 140 L270 140 L270 276 L130 276 Z"
    fill="white" filter="url(#ts-sh)"
  />

  <!-- Collar fill -->
  <path d="M159 67 C168 95 184 108 200 108 C216 108 232 95 241 67" fill="#f0f0f0" stroke="#d4d4d4" stroke-width="1"/>

  <!-- Shirt outline -->
  <path
    d="M200 38 C218 38 234 52 241 67 L293 52 L370 90 L349 150 L288 125 L288 376 L112 376 L112 125 L51 150 L30 90 L107 52 L159 67 C166 52 182 38 200 38 Z"
    fill="none" stroke="#cecece" stroke-width="1.5" stroke-linejoin="round"
  />

  <!-- Shoulder seam lines -->
  <line x1="159" y1="67"  x2="112" y2="125" stroke="#ddd" stroke-width="0.8"/>
  <line x1="241" y1="67"  x2="288" y2="125" stroke="#ddd" stroke-width="0.8"/>

  <!-- Side-shading overlay -->
  <path
    d="M200 38 C218 38 234 52 241 67 L293 52 L370 90 L349 150 L288 125 L288 376 L112 376 L112 125 L51 150 L30 90 L107 52 L159 67 C166 52 182 38 200 38 Z"
    fill="url(#ts-fade)"
  />
</svg>
