<svg xmlns="http://www.w3.org/2000/svg" viewBox="0 0 400 400">
  <defs>
    <filter id="tb-sh" x="-10%" y="-8%" width="120%" height="118%">
      <feDropShadow dx="0" dy="5" stdDeviation="10" flood-color="#000" flood-opacity="0.13"/>
    </filter>
    <linearGradient id="tb-fade" x1="0" y1="0" x2="1" y2="0">
      <stop offset="0%"   stop-color="#bbb" stop-opacity="0.14"/>
      <stop offset="28%"  stop-color="#bbb" stop-opacity="0"/>
      <stop offset="72%"  stop-color="#bbb" stop-opacity="0"/>
      <stop offset="100%" stop-color="#bbb" stop-opacity="0.14"/>
    </linearGradient>
  </defs>

  <!-- Handles (drawn first so they appear behind body top edge) -->
  <path d="M138 16 C138 16 125 16 120 28 L120 108" fill="none" stroke="#d0d0d0" stroke-width="10" stroke-linecap="round" stroke-linejoin="round"/>
  <path d="M262 16 C262 16 275 16 280 28 L280 108" fill="none" stroke="#d0d0d0" stroke-width="10" stroke-linecap="round" stroke-linejoin="round"/>
  <!-- Handle inner lines -->
  <path d="M138 16 C138 16 125 16 120 28 L120 108" fill="none" stroke="white" stroke-width="6" stroke-linecap="round"/>
  <path d="M262 16 C262 16 275 16 280 28 L280 108" fill="none" stroke="white" stroke-width="6" stroke-linecap="round"/>
  <path d="M138 16 C138 16 125 16 120 28 L120 108" fill="none" stroke="#e0e0e0" stroke-width="5" stroke-linecap="round"/>
  <path d="M262 16 C262 16 275 16 280 28 L280 108" fill="none" stroke="#e0e0e0" stroke-width="5" stroke-linecap="round"/>

  <!-- Bag body with print-zone hole (evenodd) + shadow -->
  <!-- Hole coords: x=100 y=140 w=200 h=185 → CSS top:35% left:25% w:50% h:46.25% -->
  <path fill-rule="evenodd"
    d="M48 108 L55 370 C55 384 66 393 80 393 L320 393 C334 393 345 384 345 370 L352 108 Z
       M100 140 L300 140 L300 325 L100 325 Z"
    fill="white" filter="url(#tb-sh)"
  />

  <!-- Bag outline -->
  <path
    d="M48 108 L55 370 C55 384 66 393 80 393 L320 393 C334 393 345 384 345 370 L352 108 Z"
    fill="none" stroke="#cecece" stroke-width="1.5" stroke-linejoin="round"
  />

  <!-- Top hem fold -->
  <line x1="52" y1="120" x2="348" y2="120" stroke="#e0e0e0" stroke-width="1" stroke-dasharray="none"/>

  <!-- Center seam (vertical dashed) -->
  <line x1="200" y1="108" x2="200" y2="393" stroke="#e8e8e8" stroke-width="0.75" stroke-dasharray="5 6"/>

  <!-- Shading overlay -->
  <path
    d="M48 108 L55 370 C55 384 66 393 80 393 L320 393 C334 393 345 384 345 370 L352 108 Z"
    fill="url(#tb-fade)"
  />
</svg>
