<svg xmlns="http://www.w3.org/2000/svg" viewBox="0 0 400 400">
  <rect width="400" height="400" fill="transparent"/>
  <!-- Large botanical leaf -->
  <ellipse cx="200" cy="200" r="160" fill="#1B4332" opacity="0.15"/>
  <!-- Main leaf shape -->
  <path d="M200 60 C260 100 300 160 300 220 C300 290 260 350 200 370 C140 350 100 290 100 220 C100 160 140 100 200 60Z" fill="#40916C"/>
  <!-- Leaf veins -->
  <line x1="200" y1="70" x2="200" y2="360" stroke="#1B4332" stroke-width="3" stroke-linecap="round"/>
  <line x1="200" y1="140" x2="260" y2="190" stroke="#1B4332" stroke-width="2" stroke-linecap="round"/>
  <line x1="200" y1="175" x2="255" y2="235" stroke="#1B4332" stroke-width="2" stroke-linecap="round"/>
  <line x1="200" y1="210" x2="252" y2="270" stroke="#1B4332" stroke-width="2" stroke-linecap="round"/>
  <line x1="200" y1="245" x2="242" y2="300" stroke="#1B4332" stroke-width="1.5" stroke-linecap="round"/>
  <line x1="200" y1="140" x2="140" y2="190" stroke="#1B4332" stroke-width="2" stroke-linecap="round"/>
  <line x1="200" y1="175" x2="145" y2="235" stroke="#1B4332" stroke-width="2" stroke-linecap="round"/>
  <line x1="200" y1="210" x2="148" y2="270" stroke="#1B4332" stroke-width="2" stroke-linecap="round"/>
  <line x1="200" y1="245" x2="158" y2="300" stroke="#1B4332" stroke-width="1.5" stroke-linecap="round"/>
  <!-- Highlight -->
  <path d="M185 80 C165 120 155 170 158 220" stroke="#B7E4C7" stroke-width="3" fill="none" stroke-linecap="round" opacity="0.6"/>
</svg>
